<svg xmlns="http://www.w3.org/2000/svg" xmlns:xlink="http://www.w3.org/1999/xlink" version="1.1" id="Layer_1" x="0px" y="0px" enable-background="new 0 0 1080 1080" xml:space="preserve" viewBox="18.38 430.32 1009.95 211.99">

<path fill="#030303" opacity="1.000000" stroke="none" d=" M214.420227,572.571411   C211.852631,557.676514 212.048615,543.255676 216.238861,529.154846   C225.144272,499.186798 245.345566,480.248230 275.224030,472.558472   C300.171204,466.137848 325.149323,467.068146 348.616791,479.178528   C374.157349,492.358734 387.761627,514.169434 391.141693,542.170654   C392.992493,557.503113 392.997406,573.057190 393.868164,588.509460   C394.802368,605.087097 398.632233,621.029907 404.492004,636.520874   C404.784149,637.293274 405.095856,638.062134 405.317963,638.855164   C405.396790,639.136353 405.235718,639.484863 405.126068,640.160645   C404.308289,640.284363 403.391357,640.549011 402.476257,640.542786   C388.144623,640.445007 373.812805,640.209778 359.482056,640.266174   C356.255585,640.278870 354.589630,639.103149 353.646210,636.206726   C351.444763,629.448303 349.155212,622.718567 346.782166,615.620728   C346.174744,616.115173 345.461670,616.461853 345.090790,617.031372   C333.331879,635.088013 315.931244,642.005249 295.216614,642.015930   C256.487396,642.036011 225.602936,615.263916 215.761963,577.823547   C215.338959,576.214172 214.907166,574.607178 214.420227,572.571411  M306.243683,515.857910   C299.088898,517.003113 291.444458,516.918213 284.874756,519.533264   C267.827911,526.318909 261.863464,544.317505 264.151001,562.788818   C265.935486,577.198364 273.238159,587.857239 287.150269,592.567078   C298.057068,596.259521 309.436371,595.854553 320.437378,592.179749   C328.918610,589.346680 334.684540,583.570923 338.181671,575.202881   C343.134125,563.352539 342.651794,551.424072 338.924896,539.602600   C335.226959,527.872925 327.448547,519.957397 314.988007,517.390442   C312.387634,516.854797 309.773834,516.384277 306.243683,515.857910  z" data-index="1" style="visibility: visible; opacity: 1;"/>
<path fill="#030303" opacity="1.000000" stroke="none" d=" M740.530640,640.365356   C727.383301,637.897949 715.416077,633.471375 704.766479,626.083557   C676.154907,606.235168 666.922913,577.810608 670.330322,544.612305   C673.185059,516.797852 686.278870,494.738953 711.149963,480.940765   C733.646545,468.459961 757.788269,466.460602 782.769409,471.498810   C797.620850,474.494080 810.923828,480.447815 821.565308,491.443420   C840.915649,511.437744 840.223022,547.958984 812.502197,564.854370   C785.861023,581.091736 757.589294,583.154114 728.236206,573.228088   C726.718140,572.714661 725.198364,572.206360 723.444641,571.616760   C725.409485,579.944641 733.056335,587.124268 743.933044,590.292786   C757.432617,594.225403 771.321411,593.546814 785.095215,592.390503   C796.982788,591.392517 808.806030,589.628418 820.968140,588.165588   C820.968140,603.474426 820.968140,619.025940 820.968140,634.942322   C794.588318,641.141479 768.062134,644.772339 740.530640,640.365356  M738.051331,538.273438   C744.485107,538.856384 750.919617,539.897644 757.352539,539.887878   C763.272156,539.878845 769.259888,539.104065 775.087769,537.988159   C780.208923,537.007324 783.508484,532.837219 783.484131,528.790466   C783.458374,524.508118 780.510986,520.559937 774.985718,519.905762   C766.817078,518.938477 758.434937,518.241821 750.289124,518.997498   C739.801880,519.970276 731.334717,525.421570 724.924133,535.332397   C729.335693,536.367432 733.264954,537.289307 738.051331,538.273438  z" data-index="2" style="opacity: 1; visibility: visible;"/>
<path fill="#040404" opacity="1.000000" stroke="none" d=" M140.391220,627.967957   C140.332672,602.146912 140.431763,576.817749 140.147156,551.492981   C140.025772,540.691284 137.191177,530.521118 128.303497,523.469727   C110.411766,509.274658 76.715439,513.936218 70.746170,542.286804   C69.931320,546.156921 69.475128,550.175415 69.455276,554.128235   C69.320572,580.954834 69.347519,607.782288 69.322601,634.609436   C69.320938,636.402344 69.322380,638.195251 69.322380,640.276733   C52.203613,640.276733 35.649067,640.276733 18.722687,640.276733   C18.592413,638.650146 18.371534,637.200623 18.375765,635.751770   C18.458988,607.259155 18.321985,578.763123 18.732416,550.274963   C19.293003,511.364319 43.475143,480.375732 81.474380,471.738190   C112.147675,464.765869 141.204407,468.981140 165.495621,491.052368   C180.281052,504.486603 188.875320,521.804504 190.032669,541.448486   C191.627655,568.520874 191.157806,595.715332 191.547119,622.857849   C191.614029,627.522461 191.490189,632.190247 191.580841,636.854004   C191.626801,639.218811 191.099899,640.613037 188.302704,640.598755   C173.473160,640.523132 158.642746,640.519226 143.813309,640.605896   C141.079681,640.621826 140.349991,639.379517 140.418228,636.958557   C140.497986,634.128723 140.409195,631.294189 140.391220,627.967957  z" data-index="3" style="visibility: visible;"/>
<path fill="#030303" opacity="1.000000" stroke="none" d=" M1000.999146,640.554565   C993.166138,640.559692 985.812561,640.229797 978.507568,640.682983   C973.759766,640.977539 971.321411,638.725220 968.838074,635.256775   C958.483948,620.795349 947.927185,606.479065 937.002747,591.503662   C935.516907,593.495544 934.175110,595.255127 932.874268,597.044434   C923.190002,610.365723 913.455627,623.651489 903.885742,637.054626   C902.052979,639.621460 900.120056,640.681335 896.889282,640.647400   C880.251953,640.472412 863.611816,640.566284 845.908386,640.566284   C847.168213,638.398315 847.889832,636.852295 848.877930,635.501343   C868.127808,609.182678 887.357544,582.848877 906.749512,556.635193   C909.110413,553.443848 908.064575,551.429993 906.111877,548.781799   C887.944702,524.143433 869.870544,499.436462 851.776672,474.744080   C851.004761,473.690674 850.304077,472.585052 849.051697,470.739777   C851.341736,470.739777 852.932434,470.739716 854.523132,470.739746   C869.689087,470.740082 884.856506,470.854340 900.019897,470.657013   C903.602173,470.610413 905.656311,471.804260 907.730347,474.709747   C917.183960,487.953796 926.936829,500.984222 936.975281,514.625793   C940.039490,510.547424 943.032776,506.664551 945.918152,502.703094   C952.773987,493.290619 959.649963,483.891113 966.356750,474.372925   C968.141846,471.839630 969.978394,470.615814 973.271362,470.657776   C988.768127,470.855377 1004.268799,470.738098 1019.768066,470.752106   C1021.238647,470.753448 1022.709167,470.886719 1024.906250,470.994354   C1017.034119,481.858856 1009.557007,492.215424 1002.040283,502.543121   C990.784241,518.008545 979.621643,533.544861 968.134399,548.836914   C965.595215,552.217163 965.974976,554.384094 968.272522,557.528015   C987.414856,583.722168 1006.408936,610.024658 1025.442383,636.298340   C1026.104004,637.211731 1026.710205,638.165161 1028.323730,640.551758   C1018.589294,640.551758 1010.044189,640.551758 1000.999146,640.554565  z" data-index="4" style="visibility: visible;"/>
<path fill="#030303" opacity="1.000000" stroke="none" d=" M602.671082,549.986877   C603.207397,556.430298 602.904846,562.601013 604.431213,568.280273   C608.815979,584.594788 620.828003,592.374329 636.830200,594.207703   C644.176697,595.049438 651.699707,594.350952 659.925293,594.350952   C659.925293,595.355591 659.925171,597.119629 659.925354,598.883728   C659.926514,610.715881 659.757263,622.551758 660.018982,634.378113   C660.114075,638.675964 659.484131,640.704102 654.435547,641.316345   C618.797791,645.638489 580.004517,631.248230 561.588928,596.418457   C555.189392,584.315063 551.935852,571.361877 551.921082,557.633118   C551.877441,517.135254 551.831543,476.637360 551.786865,436.139465   C551.784851,434.321747 551.786621,432.504028 551.786621,430.324371   C568.656921,430.324371 585.220520,430.324371 602.182251,430.324371   C602.182251,445.346191 602.182251,460.452820 602.182251,476.119141   C618.144836,476.119141 633.726135,476.119141 649.688171,476.119141   C649.688171,492.062958 649.688171,507.448456 649.688171,523.427612   C641.483826,523.427612 633.357361,523.446594 625.231079,523.421387   C619.231812,523.402771 613.224915,523.493774 607.236450,523.213867   C603.580994,523.042969 602.144714,524.173340 602.320801,527.996399   C602.650146,535.151001 602.574646,542.324280 602.671082,549.986877  z" data-index="5" style="opacity: 1; visibility: visible;"/>
<path fill="#030303" opacity="1.000000" stroke="none" d=" M477.390625,576.000122   C477.390503,597.621277 477.390503,618.742371 477.390503,640.213501   C460.382965,640.213501 443.831299,640.213501 427.004364,640.213501   C426.840240,639.074341 426.539154,637.961609 426.540192,636.849060   C426.567261,608.027771 425.925201,579.183594 426.869110,550.391479   C427.881439,519.511902 442.021118,495.661194 469.425659,480.610138   C487.913330,470.456329 508.062073,467.981628 528.863098,469.403992   C533.027710,469.688751 534.433716,471.385193 534.331787,475.692261   C534.028564,488.513367 534.219421,501.346191 534.217285,514.174438   C534.217041,515.807922 534.217285,517.441345 534.217285,519.282410   C528.648682,518.910706 523.503479,517.918823 518.496155,518.390503   C511.619446,519.038330 504.510254,519.887024 498.100677,522.266113   C484.892792,527.168640 478.506622,537.658508 477.792633,551.518677   C477.381592,559.498230 477.506866,567.505371 477.390625,576.000122  z" data-index="6" style="visibility: visible; opacity: 1;"/>

<path fill="#F6F6F6" opacity="1.000000" stroke="none" d=" M737.622803,538.242310   C733.264954,537.289307 729.335693,536.367432 724.924133,535.332397   C731.334717,525.421570 739.801880,519.970276 750.289124,518.997498   C758.434937,518.241821 766.817078,518.938477 774.985718,519.905762   C780.510986,520.559937 783.458374,524.508118 783.484131,528.790466   C783.508484,532.837219 780.208923,537.007324 775.087769,537.988159   C769.259888,539.104065 763.272156,539.878845 757.352539,539.887878   C750.919617,539.897644 744.485107,538.856384 737.622803,538.242310  z" data-index="8" style="opacity: 1; visibility: hidden;"/>
</svg>
