
<svg viewBox="0 0 168.85 82.28" xmlns="http://www.w3.org/2000/svg" data-name="Calque 1" id="Calque_1">
  <defs>
    <style>
      .cls-1 {
        fill: #e50914;
      }

      .cls-2 {
        fill: #d9d8d6;
      }

      .cls-3 {
        stroke: #fff;
        stroke-miterlimit: 10;
        stroke-width: 2px;
      }

      .cls-3, .cls-4 {
        fill: #fff;
      }

      .cls-5 {
        fill: #1c1b1a;
      }
    </style>
  </defs>
  <path d="M132.43,31.42h7.56c2.84,0,3.32,1.08,3.32,3.5v2.27h0c0,2.87-.53,3.49-2.97,3.49h-8.27c-2.44,0-2.97-.62-2.97-3.49v-2.27h0c0-2.42.48-3.5,3.32-3.5M141.35,24.64h-10.29c-5.16,0-9.94,1.01-9.94,8.3v6.24c0,7.29,4.77,8.3,9.94,8.3h10.29c5.16,0,9.94-1,9.94-8.3v-6.24c0-7.29-4.78-8.3-9.94-8.3" class="cls-4"></path>
  <path d="M160.93,2.1c-1.31-1.55-3.34-2.1-6.53-2.1H14.41c-5.26,0-7.07,1.84-7.87,8.34C5.74,14.84.43,56.87.05,59.91c-.12.99-.03,1.85.25,2.6l78.75-29.62,5.11,7.5-.5-9.27L160.93,2.1Z" class="cls-2"></path>
  <path d="M168.81,59.69l-.72-5.69c-1.57-12.43-5.24-41.54-5.9-46.89-.29-2.36-.69-4.02-1.39-5.14l-60.75,22.88h19.66v6.61h-8.97v15.64h-7.81v-15.64h-8.97v-4.31l-2.5.94v19.01h-10.95l-10.98-13.85v13.85h-7.81v-7.8l-4.37,1.65v6.16h-7.82v-3.21L.25,62.44c.72,1.07,2.06,1.86,4.05,2.4,2.87.71,70.5,17.44,79.94,17.44s79.27-17.27,79.97-17.45c3.36-.91,4.92-2.65,4.6-5.14M151.24,39.08c0,7.25-4.75,8.25-9.88,8.25h-10.23c-5.13,0-9.88-1-9.88-8.25v-6.21c0-7.25,4.75-8.25,9.88-8.25h10.23c5.13,0,9.88,1,9.88,8.25v6.21" class="cls-1"></path>
  <path d="M139.97,31.4h-7.47c-2.81,0-3.28,1.07-3.28,3.45v2.24c0,2.84.52,3.45,2.93,3.45h8.17c2.41,0,2.93-.61,2.93-3.45v-2.24c0-2.39-.47-3.45-3.28-3.45" class="cls-1"></path>
  <path d="M33.17,33.71h-2.31c-4.99,0-6.16-.08-6.16-2.08,0-1.17.97-1.85,2.65-1.85h7.08c2.89,0,3.31.63,3.34,2.16h5.92v-.43c0-3.47-.56-5.92-7.82-5.92h-8.92c-3.65,0-5.9.59-7.04,1.85-1.04,1.13-1.12,2.75-1.12,4.59,0,2.48.26,3.99,1.63,4.86,1.35.85,3.82,1.18,8.83,1.18,8.17,0,9.21.08,9.21,2.16s-1.93,1.99-2.97,1.99h-7.83c-1.78,0-2.89-.17-2.99-2.39h-5.92v1.2c0,4.12,1.84,5.38,7.9,5.38h7.74c8.54,0,10.15-1,10.15-6.29,0-5.82-2.15-6.41-11.37-6.41" class="cls-3"></path>
  <rect height="20.36" width="5.91" y="25.82" x="50.45" class="cls-3"></rect>
  <polygon points="69.04 31.14 80.96 46.18 90.51 46.18 90.51 25.82 84.6 25.82 84.6 40.96 84.19 40.96 84.11 40.87 72.19 25.82 62.64 25.82 62.64 46.18 68.56 46.18 68.56 31.05 68.97 31.05 69.04 31.14" class="cls-3"></polygon>
  <polygon points="118.79 25.82 94.92 25.82 94.92 30.53 103.89 30.53 103.89 46.18 109.81 46.18 109.81 30.53 118.79 30.53 118.79 25.82" class="cls-3"></polygon>
  <path d="M33.17,33.71h-2.31c-4.99,0-6.16-.08-6.16-2.08,0-1.17.97-1.85,2.65-1.85h7.08c2.89,0,3.31.63,3.34,2.16h5.92v-.43c0-3.47-.56-5.92-7.82-5.92h-8.92c-3.65,0-5.9.59-7.04,1.85-1.04,1.13-1.12,2.75-1.12,4.59,0,2.48.26,3.99,1.63,4.86,1.35.85,3.82,1.18,8.83,1.18,8.17,0,9.21.08,9.21,2.16s-1.93,1.99-2.97,1.99h-7.83c-1.78,0-2.89-.17-2.99-2.39h-5.92v1.2c0,4.12,1.84,5.38,7.9,5.38h7.74c8.54,0,10.15-1,10.15-6.29,0-5.82-2.15-6.41-11.37-6.41" class="cls-5"></path>
  <rect height="20.36" width="5.91" y="25.82" x="50.45" class="cls-5"></rect>
  <polygon points="69.04 31.14 80.96 46.18 90.51 46.18 90.51 25.82 84.6 25.82 84.6 40.96 84.19 40.96 84.11 40.87 72.19 25.82 62.64 25.82 62.64 46.18 68.56 46.18 68.56 31.05 68.97 31.05 69.04 31.14" class="cls-5"></polygon>
  <polygon points="118.79 25.82 94.92 25.82 94.92 30.53 103.89 30.53 103.89 46.18 109.81 46.18 109.81 30.53 118.79 30.53 118.79 25.82" class="cls-5"></polygon>
  <path d="M131.16,25.6c-5.52,0-8.94,1.22-8.94,7.3v6.22c0,6.08,3.42,7.3,8.94,7.3h10.24c5.52,0,8.94-1.22,8.94-7.3v-6.22c0-6.08-3.42-7.3-8.94-7.3h-10.24ZM144.25,34.88v2.25c0,2.98-.58,4.4-3.89,4.4h-8.17c-3.31,0-3.89-1.42-3.89-4.4v-2.25c0-2.72.71-4.4,4.24-4.4h7.48c3.53,0,4.23,1.68,4.23,4.4" class="cls-5"></path>
  <polygon points="31.68 60.92 33.89 60.92 33.89 60.24 31.68 60.24 31.68 59.58 33.96 59.58 33.96 58.88 30.74 58.88 30.74 62.33 34.06 62.33 34.06 61.63 31.68 61.63 31.68 60.92" class="cls-4"></polygon>
  <polygon points="39.38 58.88 38.23 58.88 37.44 59.88 37.4 59.94 37.35 59.88 36.61 58.9 36.6 58.88 35.42 58.88 36.8 60.52 35.23 62.33 36.42 62.33 37.36 61.17 37.41 61.1 37.44 61.15 38.39 62.33 39.58 62.33 38.01 60.52 39.38 58.88" class="cls-4"></polygon>
  <path d="M43.06,58.87h-2.12v3.45h.92v-1.26h1.12c.46,0,.87-.03,1.15-.37.16-.19.24-.43.24-.72,0-.26-.07-.51-.2-.69-.29-.41-.81-.41-1.12-.41M41.86,59.55h.9c.34,0,.46,0,.56.09.09.08.13.19.13.33,0,.38-.27.41-.6.41h-.99v-.83Z" class="cls-4"></path>
  <polygon points="46.79 60.92 48.99 60.92 48.99 60.24 46.79 60.24 46.79 59.58 49.07 59.58 49.07 58.88 45.85 58.88 45.85 62.33 49.17 62.33 49.17 61.63 46.79 61.63 46.79 60.92" class="cls-4"></polygon>
  <path d="M54.15,60.71c.31-.23.34-.62.34-.78s-.03-.44-.23-.68c-.3-.34-.66-.37-1.04-.37h-2.36v3.45h.94v-1.35h.88l.89,1.35h1.11l-1.03-1.42c.16-.03.34-.09.49-.2M51.8,59.56h1.25c.33,0,.39.08.44.14l.06.23c0,.31-.24.35-.46.35h-1.29v-.73h0Z" class="cls-4"></path>
  <polygon points="55.65 59.59 56.89 59.59 56.89 62.33 57.83 62.33 57.83 59.59 59.07 59.59 59.07 58.88 55.65 58.88 55.65 59.59" class="cls-4"></polygon>
  <path d="M63.09,59.04c-.34-.19-.71-.27-1.23-.27s-1.17.1-1.47.59c-.09.15-.14.32-.14.5,0,.8.82.95,1.13,1.01.07,0,.23.04.41.07.23.04.49.08.57.09.23.04.37.11.37.29,0,.37-.61.39-.8.39-.32,0-.88-.06-1.08-.5l-.02-.04-.86.22.03.05c.49.97,1.53.97,1.87.97,1.45,0,1.75-.63,1.75-1.17,0-.79-.73-.93-1.09-.99-.09-.02-.32-.06-.55-.1-.19-.03-.37-.06-.43-.08-.28-.06-.41-.12-.41-.28,0-.23.24-.34.7-.34.15,0,.43.02.65.12.19.09.25.21.28.26l.02.03.83-.21.06-.02-.03-.06c-.07-.11-.22-.36-.57-.55" class="cls-4"></path>
  <polygon points="68.93 60.92 71.14 60.92 71.14 60.24 68.93 60.24 68.93 59.58 71.21 59.58 71.21 58.88 67.99 58.88 67.99 62.33 71.31 62.33 71.31 61.63 68.93 61.63 68.93 60.92" class="cls-4"></polygon>
  <path d="M75.89,60.64v.05c0,.2,0,.3.02.49-.13-.16-.19-.23-.35-.42l-1.64-1.87v-.02h-.92v3.45h.89v-1.93c0-.17,0-.25-.02-.38.12.15.19.24.34.4l1.68,1.91h.9v-3.45h-.9v1.76h0Z" class="cls-4"></path>
  <polygon points="82.26 58.88 81.33 58.88 81.33 62.33 84.12 62.33 84.12 61.61 82.26 61.61 82.26 58.88" class="cls-4"></polygon>
  <path d="M88.2,60.9c0,.32-.05.42-.13.51-.13.14-.32.22-.62.25h-.19c-.15,0-.34,0-.54-.1-.29-.14-.35-.37-.35-.66v-2.02h-.93v1.99c0,.38,0,.86.55,1.24.17.11.37.2.59.25.22.05.46.08.72.08s1.09-.04,1.54-.53c.29-.32.3-.66.3-1.02v-2.01h-.93v2.02h-.01Z" class="cls-4"></path>
  <path d="M93.99,60.46c.1-.04.21-.12.3-.23.09-.13.14-.29.14-.47,0-.2-.05-.37-.14-.5-.24-.35-.68-.36-1.04-.37h-2.22v3.45h2.37c.33,0,.77,0,1.04-.42.13-.2.16-.43.16-.59,0-.58-.37-.77-.62-.86M91.96,60.2v-.64h1.22c.18,0,.36.04.36.31,0,.09-.02.24-.17.3l-.25.03h-1.16ZM93.67,61.23c0,.18-.06.3-.17.36l-.32.05h-1.21v-.76h1.31c.2,0,.39.04.39.36" class="cls-4"></path>
  <path d="M99.63,60.71c.31-.23.34-.62.34-.78s-.03-.44-.23-.68c-.3-.34-.66-.37-1.04-.37h-2.35v3.45h.93v-1.35h.88l.9,1.35h1.11l-1.03-1.42c.16-.03.34-.09.49-.2M97.27,59.56h1.25c.33,0,.39.08.44.14l.06.23c0,.31-.25.35-.46.35h-1.29v-.73h0Z" class="cls-4"></path>
  <rect height="3.45" width=".94" y="58.88" x="101.64" class="cls-4"></rect>
  <polygon points="104.46 62.33 105.4 62.33 105.4 61.03 107.52 61.03 107.52 60.34 105.4 60.34 105.4 59.58 107.66 59.58 107.66 58.88 104.46 58.88 104.46 62.33" class="cls-4"></polygon>
  <rect height="3.45" width=".94" y="58.88" x="109.07" class="cls-4"></rect>
  <path d="M114.78,61.1v.02c-.12.21-.33.6-1.03.6-.58,0-1.16-.39-1.16-1.12,0-.56.36-1.12,1.15-1.12.63,0,.88.39.96.52l.02.03,1.02-.12-.03-.06c-.44-.97-1.52-1.07-1.96-1.07-1.02,0-2.12.48-2.12,1.82,0,1.14.79,1.84,2.06,1.84.68,0,1.21-.18,1.61-.54.31-.29.39-.55.45-.75l.02-.06h-.98s0,.01,0,.01Z" class="cls-4"></path>
  <path d="M118.27,58.88l-1.63,3.38-.03.07h1.02l.28-.63h1.66l.29.63h1.04l-1.66-3.45h-.97ZM118.73,59.89v-.03l.06.11.47,1.03h-1.03l.48-1.05.03-.06h-.01Z" class="cls-4"></path>
  <polygon points="121.3 59.59 122.54 59.59 122.54 62.33 123.48 62.33 123.48 59.59 124.72 59.59 124.72 58.88 121.3 58.88 121.3 59.59" class="cls-4"></polygon>
  <rect height="3.45" width=".93" y="58.88" x="126.12" class="cls-4"></rect>
  <path d="M130.8,58.77h-.14c-1.23.06-1.97.74-1.97,1.84s.81,1.83,2.12,1.83,2.09-.7,2.09-1.87c0-.61-.26-.99-.37-1.13-.35-.42-.98-.67-1.73-.67M131.94,60.61c0,.69-.45,1.13-1.15,1.13-.63,0-.86-.33-.94-.44-.13-.18-.2-.4-.2-.67,0-.77.56-1.13,1.11-1.15h.05c.66,0,1.14.48,1.14,1.14" class="cls-4"></path>
  <path d="M137.42,58.88v1.81c0,.2,0,.3.02.49-.13-.16-.19-.23-.35-.42l-1.64-1.87v-.02h-.92v3.45h.89v-1.93c0-.17,0-.25-.02-.38.12.15.19.24.34.4l1.66,1.89.02.02h.9v-3.45h-.9Z" class="cls-4"></path>
  <polygon points="40.48 10.23 39.55 10.23 39.55 13.68 42.34 13.68 42.34 12.97 40.48 12.97 40.48 10.23" class="cls-1"></polygon>
  <path d="M46.42,12.26c0,.32-.05.42-.13.51-.12.14-.32.22-.62.25h-.19c-.16,0-.34,0-.55-.1-.29-.14-.35-.37-.35-.66v-2.02h-.93v1.99c0,.38,0,.86.55,1.24.17.11.37.19.59.25.22.05.46.08.72.08s1.09-.04,1.54-.53c.29-.32.3-.66.3-1.02v-2.01h-.93v2.02Z" class="cls-1"></path>
  <path d="M52.21,11.81c.1-.04.21-.11.3-.23.09-.13.14-.29.14-.48,0-.2-.05-.37-.14-.5-.24-.34-.68-.36-1.04-.37h-2.22v3.45h2.37c.33,0,.77-.01,1.04-.42.13-.2.16-.43.16-.59,0-.58-.37-.77-.62-.86M50.18,11.55v-.64h1.22c.19,0,.36.04.36.31,0,.09-.02.24-.17.3l-.26.03h-1.15ZM51.89,12.59c0,.18-.06.3-.17.36-.1.05-.23.05-.33.05h-1.21v-.76h1.32c.2,0,.39.04.39.36" class="cls-1"></path>
  <path d="M57.85,12.06c.31-.24.34-.62.34-.78s-.03-.44-.23-.68c-.3-.34-.66-.37-1.04-.37h-2.36v3.45h.94v-1.35h.88l.9,1.35h1.11l-1.03-1.41c.16-.03.34-.09.49-.2M55.5,10.92h1.25c.33,0,.39.08.44.14l.06.23c0,.31-.24.35-.46.35h-1.29v-.73h0Z" class="cls-1"></path>
  <rect height="3.45" width=".94" y="10.23" x="59.86" class="cls-1"></rect>
  <path d="M65.58,12.45v.02c-.13.21-.34.6-1.03.6-.58,0-1.16-.38-1.16-1.12,0-.56.35-1.12,1.14-1.12.63,0,.88.39.96.52l.02.03,1.01-.12-.03-.06c-.44-.97-1.52-1.07-1.97-1.07-1.02,0-2.11.48-2.11,1.82,0,1.13.79,1.84,2.07,1.84.68,0,1.2-.17,1.6-.54.31-.29.39-.55.45-.75l.02-.06h-.98.01Z" class="cls-1"></path>
  <path d="M69.06,10.23l-1.67,3.45h1.02l.29-.63h1.66l.28.63h1.05l-1.67-3.45h-.96ZM69.52,11.24v-.02l.06.11.47,1.03h-1.03l.47-1.05.03-.07" class="cls-1"></path>
  <polygon points="72.09 10.94 73.33 10.94 73.33 13.68 74.27 13.68 74.27 10.94 75.51 10.94 75.51 10.23 72.09 10.23 72.09 10.94" class="cls-1"></polygon>
  <rect height="3.45" width=".94" y="10.23" x="76.91" class="cls-1"></rect>
  <path d="M81.59,10.13h-.14c-1.24.06-1.97.74-1.97,1.83s.81,1.83,2.12,1.83,2.1-.7,2.1-1.87c0-.61-.26-.99-.37-1.12-.35-.43-.98-.67-1.72-.67M82.73,11.97c0,.69-.45,1.13-1.15,1.13-.63,0-.86-.33-.94-.44-.13-.18-.2-.4-.2-.67,0-.77.56-1.14,1.11-1.15h.05c.66,0,1.14.48,1.14,1.14" class="cls-1"></path>
  <path d="M88.21,12v.05c0,.2,0,.3.02.5-.13-.16-.19-.23-.35-.42l-1.66-1.88h-.91v3.45h.89v-1.93c0-.16,0-.24-.02-.38.12.15.19.24.34.41l1.66,1.89h.91s0-3.44,0-3.44h-.9v1.76h.02Z" class="cls-1"></path>
  <polygon points="94.58 12.28 96.79 12.28 96.79 11.59 94.58 11.59 94.58 10.93 96.86 10.93 96.86 10.23 93.65 10.23 93.65 13.68 96.96 13.68 96.96 12.99 94.58 12.99 94.58 12.28" class="cls-1"></polygon>
  <polygon points="102.29 10.23 101.13 10.23 100.35 11.23 100.34 11.24 100.3 11.3 100.25 11.24 99.52 10.25 99.5 10.23 98.33 10.23 99.7 11.88 98.13 13.68 99.33 13.68 100.26 12.52 100.31 12.45 100.35 12.51 101.28 13.66 101.29 13.68 102.48 13.68 100.91 11.88 102.29 10.23" class="cls-1"></polygon>
  <path d="M105.96,10.23h-2.12v3.45h.92v-1.26h1.12c.46,0,.87-.03,1.15-.37.16-.19.24-.43.24-.72,0-.26-.07-.51-.19-.69-.29-.41-.81-.41-1.12-.41M104.77,10.91h.9c.34,0,.46,0,.56.08.09.08.13.19.13.34,0,.37-.27.4-.6.4h-.99v-.83h0Z" class="cls-1"></path>
  <polygon points="109.69 12.28 111.9 12.28 111.9 11.59 109.69 11.59 109.69 10.93 111.97 10.93 111.97 10.23 108.76 10.23 108.76 13.68 112.07 13.68 112.07 12.99 109.69 12.99 109.69 12.28" class="cls-1"></polygon>
  <path d="M117.05,12.06c.31-.24.34-.62.34-.78s-.03-.44-.23-.68c-.3-.34-.66-.37-1.04-.37h-2.35v3.45h.93v-1.35h.88l.9,1.35h1.11l-1.03-1.41c.16-.03.34-.09.49-.2M114.7,10.92h1.26c.33,0,.39.08.44.14l.06.23c0,.31-.24.35-.46.35h-1.29v-.73h-.01Z" class="cls-1"></path>
  <polygon points="118.55 10.94 119.79 10.94 119.79 13.68 120.73 13.68 120.73 10.94 121.97 10.94 121.97 10.23 118.55 10.23 118.55 10.94" class="cls-1"></polygon>
  <path d="M124.77,10.82c.15,0,.43.02.65.12.19.09.25.21.27.26l.02.03.83-.21.06-.02-.03-.06c-.07-.12-.22-.36-.57-.55-.34-.19-.71-.27-1.23-.27s-1.16.1-1.47.59c-.09.14-.14.32-.14.5,0,.8.82.96,1.12,1.01.07.01.23.04.41.07.23.04.49.08.57.09.22.04.37.1.37.29,0,.37-.61.39-.8.39-.31,0-.88-.07-1.08-.5l-.02-.03-.86.22.03.05c.49.97,1.53.97,1.87.97,1.45,0,1.75-.63,1.75-1.16,0-.8-.73-.93-1.09-1-.09-.02-.32-.06-.55-.1-.19-.03-.36-.06-.43-.08-.28-.06-.41-.12-.41-.28,0-.23.23-.34.7-.34" class="cls-1"></path>
</svg>
